<svg width="22" height="24" viewBox="0 0 22 24" fill="none" xmlns="http://www.w3.org/2000/svg">
<path d="M1.88823 23.2497C1.63799 23.2497 1.39799 23.1509 1.22104 22.9751C1.0441 22.7993 0.944687 22.5609 0.944687 22.3122V1.68722C0.944715 1.52431 0.987468 1.36422 1.06873 1.22272C1.15 1.08123 1.26696 0.963221 1.40811 0.880325C1.54926 0.797428 1.70971 0.752507 1.87365 0.74999C2.03759 0.747472 2.19936 0.787445 2.34302 0.865968L21.2139 11.1785C21.3618 11.2594 21.4852 11.3783 21.5711 11.5227C21.657 11.6672 21.7023 11.8319 21.7023 11.9997C21.7023 12.1675 21.657 12.3322 21.5711 12.4767C21.4852 12.6211 21.3618 12.74 21.2139 12.821L2.34302 23.1335C2.2037 23.2097 2.04726 23.2497 1.88823 23.2497Z" fill="white"/>
</svg>
