<svg width="203" height="200" viewBox="0 0 203 200" fill="none" xmlns="http://www.w3.org/2000/svg">
<g filter="url(#filter0_b_1_533)">
<ellipse cx="101.382" cy="100" rx="100.645" ry="100" fill="#818698" fill-opacity="0.2"/>
</g>
<path d="M132.389 22.0823L129.538 30.0001L125.182 19.5208L121.503 18.2132L117.709 28.7501L120.423 29.7147L123.268 21.812L127.615 32.271L131.309 33.5839L135.103 23.0469L132.389 22.0823Z" fill="white"/>
<path d="M155.059 37.9998L156.517 36.074L147.033 28.9839L140.272 37.9117L142.579 39.6363L144.694 36.8432L151.103 41.6338L152.57 39.6952L146.162 34.9046L147.881 32.6344L155.059 37.9998Z" fill="white"/>
<path d="M173.814 55.3288L165.633 44.263L163.681 45.6872L166.916 50.0621L159.821 55.2401L161.534 57.5561L168.628 52.3781L171.862 56.753L173.814 55.3288Z" fill="white"/>
<path d="M187.788 98.1585L187.324 94.2981L178.916 90.5737L186.207 84.9888L185.743 81.1284L174.621 82.4466L174.965 85.3061L182.591 84.4022L175.52 89.929L175.767 91.9942L183.949 95.7133L176.322 96.6172L176.666 99.4767L187.788 98.1585Z" fill="white"/>
<path d="M173.834 121.913L173.092 125.01L185.342 121.956L186.248 118.176L176.694 109.98L175.956 113.061L177.997 114.777L176.434 121.296L173.834 121.913ZM179.833 116.313L183.722 119.584L178.771 120.747L179.833 116.313Z" fill="white"/>
<path d="M168.936 148.945C171.069 150.242 173.365 149.597 174.699 147.431L179.313 139.94L169.742 134.12L168.232 136.572L170.789 138.127L168.356 142.077L164.851 142.061L163.072 144.949L166.998 144.921C166.716 146.509 167.378 147.998 168.936 148.945ZM175.738 141.136L173.053 145.495C172.6 146.231 171.896 147.375 170.446 146.494C169.011 145.621 169.715 144.476 170.169 143.741L172.853 139.382L175.738 141.136Z" fill="white"/>
<path d="M153.079 171.123L156.411 168.299L158.718 158.73L162.501 163.138L164.698 161.276L157.402 152.777L155.205 154.639L156.602 156.266L155.614 160.396L148.822 160.048L145.783 162.624L155.012 162.961L153.079 171.123Z" fill="white"/>
<path d="M130.164 180.792L131.06 182.897L141.975 178.311L137.588 168.004L126.674 172.591L127.57 174.696L135.829 171.225L136.719 173.316L128.46 176.787L129.274 178.701L137.534 175.23L138.424 177.321L130.164 180.792Z" fill="white"/>
<path d="M105.661 188.094L119.342 186.622L119.08 184.22L113.671 184.802L112.72 176.069L109.856 176.377L110.808 185.11L105.399 185.692L105.661 188.094Z" fill="white"/>
<path d="M84.1711 186.383L92.8092 188.066L94.9772 177.078L92.1502 176.528L91.571 179.463L85.76 178.331C83.2628 177.844 81.2411 179.081 80.758 181.529C80.2748 183.978 81.6739 185.897 84.1711 186.383ZM86.0776 180.854L91.1034 181.833L90.4499 185.145L85.4241 184.166C84.576 184.001 83.2567 183.744 83.585 182.08C83.9102 180.432 85.2295 180.689 86.0776 180.854Z" fill="white"/>
<path d="M69.6084 172.754L65.5592 180.548L68.1221 181.862L73.285 171.925L63.0335 166.667L61.9198 168.81L69.6084 172.754Z" fill="white"/>
<path d="M46.7064 153.718L44.4309 151.49L40.6847 163.494L43.4633 166.215L55.4766 162.304L53.2126 160.088L50.6765 160.941L45.8855 156.25L46.7064 153.718ZM48.4009 161.713L43.5665 163.338L45.1421 158.522L48.4009 161.713Z" fill="white"/>
<path d="M33.2253 146.602C36.5562 144.929 37.4282 142.127 35.1931 137.734C33.1684 133.755 30.6227 132.527 27.59 133.728L28.9181 136.338C30.6712 135.762 31.9531 136.694 33.0344 138.819C34.3551 141.414 33.9776 143.001 31.919 144.035C29.8747 145.062 28.3867 144.43 27.0587 141.821C25.9701 139.681 25.9678 138.125 27.4599 137.071L26.1319 134.461C23.3747 136.168 22.8753 138.926 24.9 142.905C27.1351 147.298 29.9086 148.268 33.2253 146.602Z" fill="white"/>
<path d="M17.5847 112.321L15.3298 112.708L17.3604 124.373L28.3982 122.476L26.3676 110.811L24.1127 111.199L25.6494 120.026L23.4103 120.411L21.8736 111.584L19.8238 111.936L21.3604 120.763L19.1213 121.148L17.5847 112.321Z" fill="white"/>
<path d="M30.6351 74.163L28.4166 75.3017C27.7458 74.5163 26.7881 73.9416 25.5688 73.552C22.0478 72.4271 19.4416 73.8282 17.9293 78.5012C16.4121 83.1894 17.6976 85.8171 21.2338 86.9469C24.7853 88.0816 27.3865 86.6957 28.9037 82.0075C29.4111 80.4396 29.6066 79.1081 29.5049 77.9671L31.9453 76.7146L30.6351 74.163ZM22.1205 84.2071C19.9409 83.5107 19.3048 82.0982 20.2309 79.2366C21.157 76.3749 22.5177 75.6004 24.6821 76.2919C26.8617 76.9883 27.5233 78.4257 26.6022 81.2721C25.681 84.1185 24.3154 84.9083 22.1205 84.2071Z" fill="white"/>
<path d="M35.0355 50.4191L33.1654 49.1004L26.2842 58.7337L35.4383 65.1891L42.3195 55.5558L40.4495 54.237L35.2421 61.5271L33.3851 60.2176L38.5925 52.9275L36.8925 51.7286L31.685 59.0187L29.8281 57.7092L35.0355 50.4191Z" fill="white"/>
<path d="M51.8876 34.3661L50.4515 32.5845L41.188 39.9559L48.2174 48.677L57.481 41.3056L56.045 39.524L49.0347 45.1024L47.6087 43.3332L54.619 37.7549L53.3135 36.1353L46.3033 41.7136L44.8773 39.9445L51.8876 34.3661Z" fill="white"/>
<path d="M74.2369 25.9614C74.5259 25.1763 74.5381 24.3456 74.2468 23.6177C73.6345 22.0875 72.4239 21.1722 70.058 22.1068L60.8921 25.7277L65.0534 36.127L74.5764 32.365C76.9423 31.4304 77.4577 29.7472 76.7563 27.9941C76.2747 26.7908 75.3496 26.1584 74.2369 25.9614ZM64.3433 26.6009L69.8636 24.4202C70.5927 24.1321 71.2475 23.8735 71.6755 24.9431C72.1094 26.0276 71.4547 26.2863 70.7405 26.5684L70.7256 26.5743L65.2052 28.7551L64.3433 26.6009ZM73.0954 30.5586L66.9054 33.0039L66.0256 30.8052L72.2156 28.3599C72.9298 28.0778 73.5845 27.8191 74.0244 28.9185C74.4643 30.0178 73.8096 30.2765 73.0954 30.5586Z" fill="white"/>
<path d="M92.8882 111.25C92.638 111.25 92.398 111.151 92.221 110.975C92.0441 110.799 91.9447 110.561 91.9447 110.312V89.6872C91.9447 89.5243 91.9875 89.3642 92.0687 89.2227C92.15 89.0812 92.267 88.9632 92.4081 88.8803C92.5493 88.7974 92.7097 88.7525 92.8736 88.75C93.0376 88.7475 93.1994 88.7874 93.343 88.866L112.214 99.1785C112.362 99.2594 112.485 99.3783 112.571 99.5227C112.657 99.6672 112.702 99.8319 112.702 99.9997C112.702 100.168 112.657 100.332 112.571 100.477C112.485 100.621 112.362 100.74 112.214 100.821L93.343 111.133C93.2037 111.21 93.0473 111.25 92.8882 111.25Z" fill="white"/>
<defs>
<filter id="filter0_b_1_533" x="-49.2623" y="-50" width="301.289" height="300" filterUnits="userSpaceOnUse" color-interpolation-filters="sRGB">
<feFlood flood-opacity="0" result="BackgroundImageFix"/>
<feGaussianBlur in="BackgroundImageFix" stdDeviation="25"/>
<feComposite in2="SourceAlpha" operator="in" result="effect1_backgroundBlur_1_533"/>
<feBlend mode="normal" in="SourceGraphic" in2="effect1_backgroundBlur_1_533" result="shape"/>
</filter>
</defs>
</svg>
