<svg width="147" height="120" viewBox="0 0 147 120" fill="none" xmlns="http://www.w3.org/2000/svg">
<path fill-rule="evenodd" clip-rule="evenodd" d="M120.556 91.9222C120.832 91.9378 121.068 91.7269 121.083 91.4513C122.127 72.6706 118.158 53.7378 103.529 39.7044C96.9324 33.3766 89.1076 29.5641 81.808 29.7217C74.4633 29.8803 67.7634 34.0556 63.4777 43.4511C63.3779 43.6698 63.2814 43.8911 63.1883 44.1146C56.9554 43.5018 50.252 43.3977 43.9946 43.3005C41.5414 43.2624 39.1568 43.2254 36.8959 43.1592C25.0252 42.8116 16.1652 37.3934 10.2797 32.0362C7.33707 29.3578 5.14319 26.6989 3.69554 24.7075C2.97182 23.712 2.43587 22.885 2.08714 22.3081C1.91248 22.0192 1.78634 21.7956 1.70766 21.6467C1.67466 21.5843 1.65224 21.5392 1.63863 21.5101C1.63089 21.4787 1.61999 21.4476 1.60577 21.4173C1.48864 21.1671 1.19094 21.059 0.940848 21.1759C0.745123 21.2674 0.682594 21.44 0.664697 21.517C0.646649 21.5946 0.651579 21.658 0.654027 21.6828C0.659456 21.738 0.67293 21.7816 0.677683 21.7967C0.689884 21.8356 0.705592 21.8726 0.717177 21.8987C0.742664 21.9561 0.77915 22.0292 0.82351 22.1131C0.913563 22.2836 1.04984 22.5244 1.23139 22.8248C1.59507 23.4263 2.14674 24.2769 2.88678 25.2949C4.36666 27.3306 6.60493 30.0429 9.60683 32.7753C15.6103 38.2398 24.6887 43.8021 36.8676 44.1587C39.1614 44.2259 41.5691 44.2634 44.0373 44.3018C50.1932 44.3977 56.7263 44.4995 62.8115 45.0819C61.3053 49.226 60.9049 54.0408 61.7834 58.5407C62.7806 63.6482 65.4354 68.3906 70.0429 71.2649C72.6058 72.8637 75.0597 73.4647 77.3012 73.3165C79.5407 73.1683 81.5313 72.2746 83.1738 70.944C86.4428 68.2958 88.3761 63.8831 88.2069 59.9789C88.0101 55.4372 85.9188 52.1307 82.5931 49.7451C79.2908 47.3762 74.7799 45.9188 69.7146 45.0013C67.9522 44.6821 66.1152 44.4272 64.2296 44.2223C64.2813 44.103 64.334 43.9845 64.3877 43.8668C68.5404 34.763 74.9285 30.8704 81.8306 30.7214C88.7779 30.5714 96.359 34.2115 102.837 40.4256C117.178 54.1827 121.119 72.7785 120.085 91.3948C120.069 91.6705 120.281 91.9066 120.556 91.9222ZM63.8398 45.1855C65.8007 45.393 67.7093 45.6541 69.5372 45.9852C74.545 46.8923 78.8853 48.3154 82.0107 50.5574C85.1127 52.7826 87.0256 55.8172 87.2077 60.0212C87.3631 63.6059 85.5694 67.7158 82.5437 70.1669C81.0389 71.3859 79.2403 72.186 77.2341 72.3187C75.23 72.4513 72.9818 71.9202 70.5717 70.4167C66.2518 67.7219 63.722 63.2519 62.765 58.3501C61.9035 53.9372 62.3248 49.2074 63.8398 45.1855ZM1.36503 22.0819C1.44025 22.0467 1.49562 21.9995 1.53625 21.9505C1.49089 22.0047 1.43325 22.05 1.36503 22.0819Z" fill="white"/>
<path fill-rule="evenodd" clip-rule="evenodd" d="M120.553 98.3445C120.796 98.3439 121.004 98.1676 121.044 97.9271C122.139 91.3552 126.693 85.3593 132.22 81.3061L132.22 81.3061C132.401 81.1727 132.581 81.0394 132.76 80.9072C134.286 79.7761 135.716 78.7166 137.508 78.231C137.774 78.1588 137.932 77.8842 137.859 77.6177C137.787 77.3512 137.512 77.1937 137.245 77.2659C135.26 77.804 133.674 78.9817 132.167 80.1007C131.986 80.2349 131.807 80.3683 131.627 80.4997C126.587 84.196 122.27 89.511 120.568 95.4977C119.813 92.4366 118.568 89.2182 116.802 86.3543C114.596 82.7744 111.555 79.7153 107.609 78.2454C107.35 78.149 107.063 78.2805 106.966 78.5392C106.87 78.798 107.002 79.0859 107.261 79.1823C110.933 80.5506 113.82 83.4205 115.951 86.8783C118.082 90.3351 119.437 94.3461 120.058 97.9295C120.1 98.1697 120.309 98.3451 120.553 98.3445Z" fill="white"/>
</svg>
